<?xml version="1.0" standalone="no"?>
<!DOCTYPE svg PUBLIC "-//W3C//DTD SVG 20010904//EN"
 "http://www.w3.org/TR/2001/REC-SVG-20010904/DTD/svg10.dtd">
<svg version="1.0" xmlns="http://www.w3.org/2000/svg"
 width="757.000000pt" height="757.000000pt" viewBox="0 0 757.000000 757.000000"
 preserveAspectRatio="xMidYMid meet">
<metadata>
Created by potrace 1.11, written by Peter Selinger 2001-2013
</metadata>
<g transform="translate(0.000000,757.000000) scale(0.100000,-0.100000)"
fill="#000000" stroke="none">
<path d="M0 3787 l0 -3787 3785 0 3785 0 0 3780 0 3780 -3258 0 c-1792 0
-3496 3 -3785 7 l-527 6 0 -3786z m4115 3559 c534 -124 914 -504 1041 -1041
14 -57 17 -144 21 -471 l5 -401 105 -6 c88 -5 115 -11 168 -36 81 -37 139 -96
178 -179 31 -65 32 -72 35 -228 5 -188 -9 -259 -63 -342 -47 -70 -89 -98 -301
-205 l-181 -90 -12 -46 c-33 -128 -144 -343 -249 -483 -29 -39 -52 -72 -50
-73 21 -19 1034 -514 1063 -519 101 -19 216 -120 255 -224 19 -48 21 -72 18
-157 -6 -140 -25 -174 -198 -350 -76 -77 -143 -150 -149 -162 -33 -65 4 -158
74 -181 76 -25 96 -14 255 142 159 156 186 176 275 201 135 39 283 -2 379
-106 78 -84 99 -145 94 -274 -5 -130 -29 -178 -149 -301 l-89 -90 0 -822 0
-822 -2921 0 -2920 0 4 1043 c4 1010 4 1045 24 1138 76 349 271 645 548 835
56 38 311 172 673 353 320 160 582 293 582 296 0 3 -32 50 -70 103 -83 115
-175 293 -215 416 l-28 88 -196 98 c-216 108 -261 143 -309 240 -27 54 -27 57
-27 265 l0 210 30 58 c38 76 118 149 193 177 37 14 90 24 153 27 l97 6 5 386
c4 346 7 396 26 483 121 552 551 963 1101 1053 122 20 627 14 725 -9z"/>
<path d="M3465 7119 c-96 -12 -232 -52 -322 -94 -352 -163 -606 -526 -630
-903 l-6 -92 1214 2 1214 3 -3 70 c-3 88 -16 158 -49 260 -119 375 -423 649
-822 741 -80 19 -489 28 -596 13z"/>
<path d="M2738 5667 c112 -139 155 -180 221 -210 46 -22 53 -22 745 -25 770
-3 743 -5 839 59 37 24 127 127 250 287 8 9 -208 12 -1072 12 l-1082 0 99
-123z"/>
<path d="M4855 5459 c-111 -140 -212 -213 -350 -256 -56 -17 -109 -18 -775
-18 -785 0 -767 -1 -897 62 -86 42 -166 112 -253 223 l-65 83 -3 -449 c-3
-505 2 -570 63 -750 87 -261 250 -491 460 -648 94 -71 445 -292 499 -315 108
-47 242 -51 350 -11 57 22 188 101 422 255 329 218 522 495 607 870 18 81 20
135 24 530 3 242 3 459 1 482 l-3 42 -80 -100z"/>
<path d="M2062 5146 l-37 -34 -3 -141 c-5 -192 -3 -195 141 -267 l110 -56 -6
54 c-4 29 -7 149 -7 266 l0 212 -80 0 c-77 0 -82 -1 -118 -34z"/>
<path d="M5178 4915 c-2 -146 -2 -265 0 -265 1 0 47 22 101 50 141 70 141 71
141 247 0 206 -19 233 -164 233 l-75 0 -3 -265z"/>
<path d="M2656 3479 l-158 -80 24 -27 c14 -15 152 -173 308 -350 155 -178 285
-320 290 -315 63 72 361 435 358 437 -1 2 -32 17 -68 34 -75 36 -439 267 -528
335 -33 26 -62 47 -64 46 -2 0 -74 -36 -162 -80z"/>
<path d="M4572 3520 c-77 -62 -469 -310 -544 -345 l-68 -31 186 -223 c102
-123 190 -219 194 -214 57 61 600 688 600 692 0 5 -303 161 -314 161 -2 0 -26
-18 -54 -40z"/>
<path d="M1904 3102 c-371 -187 -452 -238 -558 -353 -124 -134 -215 -297 -264
-476 l-27 -98 -3 -927 -3 -928 486 0 485 0 0 670 0 670 120 0 120 0 0 -670 0
-670 741 0 741 0 -9 42 c-17 86 -8 178 22 248 27 61 66 103 661 700 397 399
635 644 638 660 3 14 7 167 8 340 l3 315 28 59 c22 48 64 96 212 246 102 102
185 189 185 193 0 9 -296 157 -312 156 -7 0 -195 -209 -418 -465 -223 -256
-412 -471 -420 -479 -13 -12 -30 4 -130 125 l-115 139 -3 -410 -2 -409 -365 0
-365 0 -2 412 -3 412 -119 -143 c-97 -116 -121 -140 -131 -129 -7 7 -196 222
-419 478 -224 256 -412 466 -419 467 -6 1 -170 -77 -363 -175z"/>
<path d="M3658 2968 l-58 -70 0 -439 0 -439 120 0 120 0 0 441 0 442 -56 68
c-31 38 -59 69 -63 68 -3 0 -32 -32 -63 -71z"/>
<path d="M5715 2980 c-16 -7 -400 -385 -407 -401 -1 -2 -4 -157 -7 -344 l-6
-340 -28 -55 c-23 -44 -157 -183 -652 -680 -343 -344 -628 -635 -634 -647 -31
-60 0 -147 62 -176 41 -20 65 -21 104 -7 15 6 305 287 648 629 341 340 634
628 652 640 77 52 96 55 450 60 l333 6 191 190 c105 105 197 202 205 217 30
57 6 146 -47 173 -15 8 -51 15 -80 15 l-52 0 -152 -150 c-192 -189 -221 -205
-375 -205 -96 0 -110 3 -164 29 -73 36 -135 96 -173 168 -26 50 -28 61 -28
173 0 113 2 123 29 175 18 36 76 103 166 195 76 77 143 150 149 162 27 53 0
143 -50 168 -30 16 -102 19 -134 5z"/>
<path d="M6320 1447 l-65 -32 -333 -5 -332 -5 -542 -542 -543 -543 948 0 947
0 0 580 c0 319 -3 580 -7 579 -5 0 -37 -15 -73 -32z"/>
</g>
</svg>
